<?xml version="1.0" encoding="utf-8"?>
<!-- Generator: Adobe Illustrator 27.5.0, SVG Export Plug-In . SVG Version: 6.00 Build 0)  -->
<svg version="1.1" id="Layer_1" xmlns="http://www.w3.org/2000/svg" xmlns:xlink="http://www.w3.org/1999/xlink" x="0px" y="0px"
	 viewBox="0 0 4000 9000" style="enable-background:new 0 0 4000 9000;" xml:space="preserve">
<g>
	<g>
		<defs>
			<rect id="SVGID_1_" x="0.084" y="3.322" width="3998.525" height="8996.678"/>
		</defs>
		<clipPath id="SVGID_00000098943528437205371110000012330071248115952004_">
			<use xlink:href="#SVGID_1_"  style="overflow:visible;"/>
		</clipPath>
		
			<linearGradient id="SVGID_00000163780571552331511010000001913444581846655122_" gradientUnits="userSpaceOnUse" x1="2146.0896" y1="8995.2178" x2="1852.6041" y2="8.1038">
			<stop  offset="0" style="stop-color:#5E17A8"/>
			<stop  offset="1" style="stop-color:#FF0044"/>
		</linearGradient>
		
			<rect x="0.084" y="3.322" style="clip-path:url(#SVGID_00000098943528437205371110000012330071248115952004_);fill:url(#SVGID_00000163780571552331511010000001913444581846655122_);" width="3998.525" height="8996.678"/>
	</g>
	<g>
		<defs>
			<path id="SVGID_00000077285624502129015660000003925051620050003352_" d="M3998.609,1262.377
				c-13.119-2.807-26.716-4.297-40.64-4.297c-107.343,0-195.165,87.823-195.165,195.166v722.395
				c0,107.341-87.825,195.166-195.166,195.166c-107.346,0-195.169-87.824-195.169-195.166v-452.583
				c0-107.343-87.826-195.166-195.164-195.166c-107.349,0-195.17,87.823-195.17,195.166v724.905
				c0,107.342-87.823,195.166-195.164,195.166c-107.343,0-195.17-87.825-195.17-195.166v-646.238
				c0-107.342-87.823-195.166-195.161-195.166c-95.168,0-174.993,69.03-191.88,159.489c-2.161,11.571-3.29,23.498-3.29,35.677
				v702.595c-16.887,90.458-96.71,159.488-191.875,159.488c-46.496,0-89.597,0-136.092,0c-95.167,0-174.988-69.03-191.875-159.488
				v-702.595c0-12.179-1.13-24.106-3.292-35.677c-16.887-90.459-96.71-159.489-191.877-159.489
				c-107.339,0-195.162,87.824-195.162,195.166v646.238c0,107.342-87.828,195.166-195.17,195.166s-195.165-87.825-195.165-195.166
				v-724.905c0-107.343-87.821-195.166-195.17-195.166c-107.338,0-195.16,87.823-195.16,195.166v452.583
				c0,107.341-87.824,195.166-195.17,195.166c-107.342,0-195.165-87.824-195.165-195.166v-722.395
				c0-80.821-49.79-150.57-120.212-180.108V3.322h3998.525V1262.377z"/>
		</defs>
		<clipPath id="SVGID_00000042715927362262356680000005010126742764583820_">
			<use xlink:href="#SVGID_00000077285624502129015660000003925051620050003352_"  style="overflow:visible;"/>
		</clipPath>
		
			<linearGradient id="SVGID_00000099635569021018093920000000495208586015690638_" gradientUnits="userSpaceOnUse" x1="2003.2645" y1="-12.1867" x2="1992.0959" y2="3824.2068">
			<stop  offset="0" style="stop-color:#F8D82E"/>
			<stop  offset="1" style="stop-color:#FF007B"/>
		</linearGradient>
		
			<rect x="0.084" y="3.322" style="clip-path:url(#SVGID_00000042715927362262356680000005010126742764583820_);fill:url(#SVGID_00000099635569021018093920000000495208586015690638_);" width="3998.525" height="2660.486"/>
	</g>
	<g>
		<defs>
			<path id="SVGID_00000023983488845615413350000004937943436194528397_" d="M3998.609,7740.944
				c-13.119,2.809-26.716,4.298-40.64,4.298c-107.343,0-195.165-87.823-195.165-195.167v-722.395
				c0-107.342-87.825-195.166-195.166-195.166c-107.346,0-195.169,87.824-195.169,195.166v452.583
				c0,107.342-87.826,195.167-195.164,195.167c-107.349,0-195.17-87.825-195.17-195.167v-724.905
				c0-107.341-87.823-195.166-195.164-195.166c-107.343,0-195.17,87.825-195.17,195.166v646.238
				c0,107.341-87.823,195.166-195.161,195.166c-95.168,0-174.993-69.03-191.88-159.488c-2.161-11.572-3.29-23.499-3.29-35.678
				v-702.595c-16.887-90.458-96.71-159.488-191.875-159.488c-46.496,0-89.597,0-136.092,0c-95.167,0-174.988,69.03-191.875,159.488
				v702.595c0,12.179-1.13,24.105-3.292,35.678c-16.887,90.458-96.71,159.488-191.877,159.488
				c-107.339,0-195.162-87.825-195.162-195.166v-646.238c0-107.341-87.828-195.166-195.17-195.166s-195.165,87.825-195.165,195.166
				v724.905c0,107.342-87.821,195.167-195.17,195.167c-107.338,0-195.16-87.825-195.16-195.167v-452.583
				c0-107.342-87.824-195.166-195.17-195.166c-107.342,0-195.165,87.824-195.165,195.166v722.395
				c0,80.821-49.79,150.57-120.212,180.108V9000h3998.525V7740.944z"/>
		</defs>
		<clipPath id="SVGID_00000139980620995425685640000005402582278407454394_">
			<use xlink:href="#SVGID_00000023983488845615413350000004937943436194528397_"  style="overflow:visible;"/>
		</clipPath>
		
			<linearGradient id="SVGID_00000101811400400706158350000002815141908904170683_" gradientUnits="userSpaceOnUse" x1="2003.2645" y1="9015.5059" x2="1992.0959" y2="5179.1118">
			<stop  offset="0" style="stop-color:#F8D82E"/>
			<stop  offset="1" style="stop-color:#FF007B"/>
		</linearGradient>
		
			<rect x="0.084" y="6339.513" style="clip-path:url(#SVGID_00000139980620995425685640000005402582278407454394_);fill:url(#SVGID_00000101811400400706158350000002815141908904170683_);" width="3998.525" height="2660.487"/>
	</g>
</g>
</svg>
